<svg width="847" height="589" viewBox="0 0 847 589" fill="none" xmlns="http://www.w3.org/2000/svg">
<g clip-path="url(#clip0)">
<path d="M586.517 550.079L615.517 566.919L586.927 560.019C587.148 562.379 587.447 564.699 587.847 566.969C587.958 567.599 588.077 568.219 588.208 568.839C589.185 574.052 590.955 579.084 593.458 583.759C593.938 584.619 594.418 585.459 594.918 586.269C595.398 587.089 595.898 587.879 596.407 588.649H673.278C673.918 587.879 674.528 587.079 675.088 586.269C680.569 578.554 682.789 568.99 681.267 559.649C680.988 557.749 680.587 555.869 680.068 554.019C679.564 552.13 678.953 550.27 678.238 548.449C676.989 545.233 675.515 542.109 673.827 539.099C670.307 532.759 664.818 527.039 658.347 521.959C655.215 519.515 651.95 517.245 648.568 515.159C647.927 514.749 647.277 514.349 646.617 513.959C645.608 513.359 644.597 512.769 643.577 512.199C641.548 511.039 639.498 509.939 637.448 508.899C636.908 508.619 636.378 508.349 635.847 508.089C631.398 505.869 626.968 503.879 622.748 502.129C622.218 501.909 621.678 501.689 621.148 501.479C612.753 498.045 604.165 495.104 595.428 492.669C595.428 492.669 595.398 492.749 595.347 492.919C595.218 493.379 594.887 494.489 594.438 496.129C593.188 500.679 590.988 509.359 589.218 519.839C589.118 520.409 589.028 520.989 588.928 521.569C587.449 530.433 586.63 539.395 586.478 548.379C586.468 548.939 586.468 549.489 586.468 550.049L586.517 550.079Z" fill="#F2F2F2"/>
<path d="M593.307 491.649C593.318 491.679 593.418 492.169 593.648 493.069C593.838 493.819 594.097 494.849 594.438 496.129C595.608 500.599 597.688 508.089 600.648 517.109C600.818 517.629 600.998 518.169 601.177 518.709C603.238 524.879 605.688 531.699 608.517 538.709C609.228 540.469 609.938 542.199 610.668 543.889C610.887 544.419 611.108 544.94 611.338 545.449C614.438 552.63 617.628 559.2 620.907 565.159L621.738 566.649C625.55 573.564 629.964 580.129 634.927 586.269C635.597 587.089 636.278 587.879 636.967 588.649H639.288C638.588 587.879 637.887 587.079 637.208 586.269C631.958 579.917 627.315 573.087 623.338 565.87C623.057 565.38 622.778 564.889 622.508 564.389C618.978 557.979 615.767 551.279 612.898 544.639C612.668 544.129 612.447 543.609 612.228 543.079C608.478 534.299 605.327 525.669 602.788 518.07C602.608 517.53 602.427 516.99 602.258 516.459C598.557 505.239 596.238 496.439 595.347 492.919C595.228 492.399 595.128 491.989 595.057 491.709C594.988 491.449 594.958 491.299 594.948 491.269L594.138 491.459H594.128L593.307 491.649Z" fill="#C8C8C8"/>
<path d="M587.418 521.689C587.918 521.659 588.427 521.619 588.927 521.569C593.121 521.171 597.241 520.209 601.177 518.709C601.717 518.509 602.258 518.289 602.788 518.069C604.349 517.404 605.875 516.656 607.358 515.829C613.442 512.464 618.7 507.783 622.748 502.129C622.878 501.959 622.998 501.789 623.117 501.619C622.577 501.399 622.047 501.179 621.528 500.959C621.407 501.129 621.278 501.309 621.148 501.479C617.269 506.778 612.283 511.17 606.538 514.349C605.149 515.127 603.72 515.831 602.258 516.459C601.718 516.689 601.177 516.899 600.648 517.109C596.973 518.515 593.131 519.433 589.218 519.839C588.708 519.889 588.198 519.939 587.688 519.969C587.597 520.529 587.508 521.099 587.418 521.689Z" fill="#C8C8C8"/>
<path d="M585.157 548.239C585.157 548.809 585.168 549.369 585.168 549.939C585.617 549.989 586.068 550.039 586.517 550.079C595.058 550.826 603.64 549.225 611.338 545.449C611.858 545.189 612.378 544.919 612.898 544.639C613.108 544.539 613.318 544.419 613.517 544.309C620.009 540.704 625.559 535.619 629.717 529.466C633.875 523.314 636.523 516.268 637.447 508.899C637.478 508.729 637.498 508.57 637.517 508.399C636.987 508.119 636.447 507.849 635.907 507.57C635.887 507.74 635.867 507.92 635.847 508.089C635.035 515.305 632.51 522.223 628.483 528.266C624.457 534.308 619.044 539.302 612.698 542.829C612.546 542.923 612.389 543.006 612.228 543.079C611.718 543.37 611.198 543.64 610.668 543.889C603.172 547.586 594.801 549.139 586.478 548.379C586.038 548.339 585.597 548.289 585.157 548.239Z" fill="#C8C8C8"/>
<path d="M586.698 566.579C586.818 567.219 586.948 567.859 587.097 568.499C587.468 568.619 587.838 568.739 588.208 568.839C599.274 572.249 611.209 571.47 621.738 566.649C622.267 566.399 622.807 566.139 623.338 565.869C623.898 565.589 624.458 565.289 625.017 564.979C632.193 560.991 638.206 555.202 642.464 548.183C646.721 541.164 649.077 533.156 649.298 524.949C649.398 521.669 649.154 518.388 648.568 515.159C648.548 515.009 648.517 514.869 648.487 514.719C647.838 514.299 647.177 513.889 646.517 513.479C646.557 513.639 646.588 513.799 646.617 513.959C647.134 516.316 647.455 518.71 647.577 521.119C648.043 529.667 646.097 538.173 641.961 545.668C637.826 553.163 631.667 559.345 624.188 563.509C623.637 563.809 623.077 564.109 622.508 564.389C621.978 564.659 621.448 564.919 620.907 565.159C619.182 565.945 617.409 566.62 615.597 567.179C606.551 569.998 596.85 569.924 587.847 566.969C587.458 566.849 587.077 566.719 586.698 566.579Z" fill="#C8C8C8"/>
<path d="M649.783 287.819H705.783V231.819H649.783V287.819Z" fill="#FFB8B8"/>
<path d="M740.707 566.513L729.673 566.512L724.425 523.955L740.709 523.956L740.707 566.513Z" fill="#FFB8B8"/>
<path d="M708.403 582.799C708.408 584.035 708.902 585.219 709.777 586.092C710.652 586.965 711.837 587.456 713.073 587.459H733.833L734.243 586.609L737.413 580.069L738.653 586.609L738.813 587.459H746.643L746.573 586.609L744.443 561.069L740.703 560.849L728.883 560.139L727.003 560.029V567.499L710.423 578.949C709.799 579.379 709.29 579.954 708.938 580.624C708.586 581.295 708.402 582.041 708.403 582.799Z" fill="#343536"/>
<path d="M676.18 559.507L665.576 562.557L648.768 523.109L664.418 518.608L676.18 559.507Z" fill="#FFB8B8"/>
<path d="M649.633 584.089C649.982 585.275 650.784 586.275 651.867 586.873C652.949 587.47 654.223 587.616 655.413 587.279L657.743 586.609L670.633 582.899L675.373 581.539L676.763 573.449L680.153 580.169L687.673 577.999L678.263 553.249L674.613 554.069L673.303 554.359L663.053 556.659L661.213 557.069L663.283 564.249L650.513 579.839C650.034 580.423 649.704 581.115 649.551 581.856C649.398 582.596 649.426 583.362 649.633 584.089Z" fill="#343536"/>
<path d="M611.794 456.757C610.86 454.295 610.515 451.647 610.788 449.027C611.061 446.407 611.943 443.888 613.364 441.67L638.783 309.819L648.783 259.819H708.783C708.783 259.819 746.283 301.319 738.283 354.319L740.522 428.959C742.646 434.079 743.17 439.721 742.026 445.145L741.135 449.367L741.478 450.003C743.115 453.032 743.995 456.413 744.042 459.856C744.088 463.299 743.301 466.702 741.747 469.775L741.567 529.413L723.567 528.413L699.783 454.819L682.283 366.319L652.783 434.819L651.783 450.819L652.268 464.922L666.271 521.689L646.771 529.189L611.794 456.757Z" fill="#343536"/>
<path d="M845.64 588.649H555.865C555.549 588.649 555.246 588.524 555.023 588.301C554.8 588.077 554.674 587.775 554.674 587.459C554.674 587.143 554.8 586.84 555.023 586.617C555.246 586.394 555.549 586.268 555.865 586.268H845.64C845.955 586.269 846.257 586.395 846.48 586.618C846.702 586.841 846.827 587.144 846.827 587.459C846.827 587.774 846.702 588.076 846.48 588.299C846.257 588.523 845.955 588.649 845.64 588.649V588.649Z" fill="#BBBCBC"/>
<path d="M540.494 101.333C557.006 101.333 570.392 87.947 570.392 71.435C570.392 54.923 557.006 41.5373 540.494 41.5373C523.982 41.5373 510.597 54.923 510.597 71.435C510.597 87.947 523.982 101.333 540.494 101.333Z" fill="#D5A021"/>
<path d="M555.842 58.9746C555.392 58.5456 554.794 58.3062 554.173 58.3062C553.551 58.3062 552.954 58.5456 552.504 58.9746C546.16 64.0342 540.462 69.8542 535.538 76.3039C534.329 73.965 533.12 71.626 531.912 69.2871C530.516 66.5873 526.441 68.9722 527.835 71.6697C529.604 75.0908 531.372 78.5119 533.14 81.933C534.017 83.6306 536.261 83.2842 537.216 81.933C542.463 74.5429 548.734 67.9367 555.842 62.3127C556.281 61.8682 556.527 61.2685 556.527 60.6436C556.527 60.0188 556.281 59.4191 555.842 58.9746Z" fill="#F7F8FA"/>
<path d="M568.277 92.7034C567.999 93.2358 567.674 93.7421 567.306 94.2164L618.058 131.484L675.773 150.213C679.404 151.391 682.452 153.902 684.305 157.239C686.157 160.577 686.674 164.493 685.753 168.197C684.831 171.901 682.54 175.118 679.34 177.199C676.14 179.28 672.27 180.07 668.51 179.409H668.51C656.327 177.27 644.552 173.244 633.609 167.476L597.486 148.434L553.785 96.3879C552.191 95.3067 550.943 93.7876 550.191 92.0136C549.439 90.2396 549.216 88.2862 549.549 86.3884C549.881 84.4907 550.755 82.7294 552.065 81.3166C553.375 79.9037 555.065 78.8995 556.933 78.4248C558.8 77.95 560.765 78.0249 562.59 78.6405C564.416 79.2561 566.025 80.3862 567.223 81.8947C568.422 83.4032 569.159 85.2259 569.346 87.1435C569.533 89.0611 569.162 90.9918 568.277 92.7034V92.7034Z" fill="#FFB8B8"/>
<path d="M610.574 155.584L621.676 131.188L677.064 142.443C679.832 143.872 682.29 145.833 684.3 148.212C686.31 150.591 687.831 153.343 688.777 156.31C689.723 159.277 690.076 162.402 689.815 165.505C689.553 168.609 688.683 171.63 687.254 174.398C685.825 177.165 683.865 179.623 681.486 181.633C679.106 183.643 676.354 185.164 673.387 186.11C667.395 188.021 660.888 187.473 655.3 184.587L610.574 155.584Z" fill="#343536"/>
<path d="M667.475 29.3056H3.71793C2.73221 29.3045 1.78717 28.9124 1.09016 28.2154C0.393155 27.5184 0.00109784 26.5734 1.52588e-05 25.5877V3.71791C0.00109784 2.73219 0.393155 1.78716 1.09016 1.09015C1.78717 0.39314 2.73221 0.00108258 3.71793 0H667.475C668.461 0.00108258 669.406 0.39314 670.103 1.09015C670.8 1.78716 671.192 2.73219 671.193 3.71791V25.5877C671.192 26.5734 670.8 27.5185 670.103 28.2155C669.406 28.9125 668.461 29.3045 667.475 29.3056Z" fill="#F7F8FA"/>
<path d="M21.5766 18.8646C24.4919 18.8646 26.8551 16.5013 26.8551 13.5861C26.8551 10.6708 24.4919 8.30756 21.5766 8.30756C18.6614 8.30756 16.2981 10.6708 16.2981 13.5861C16.2981 16.5013 18.6614 18.8646 21.5766 18.8646Z" fill="#D5A021"/>
<path d="M41.6121 18.8646C44.5274 18.8646 46.8906 16.5013 46.8906 13.5861C46.8906 10.6708 44.5274 8.30756 41.6121 8.30756C38.6969 8.30756 36.3336 10.6708 36.3336 13.5861C36.3336 16.5013 38.6969 18.8646 41.6121 18.8646Z" fill="#D5A021"/>
<path d="M61.6485 18.8646C64.5638 18.8646 66.927 16.5013 66.927 13.5861C66.927 10.6708 64.5638 8.30756 61.6485 8.30756C58.7333 8.30756 56.37 10.6708 56.37 13.5861C56.37 16.5013 58.7333 18.8646 61.6485 18.8646Z" fill="#D5A021"/>
<path d="M647.844 9.95296H624.773C624.32 9.95296 623.885 9.77289 623.564 9.45239C623.244 9.13189 623.064 8.69721 623.064 8.24396C623.064 7.7907 623.244 7.35601 623.564 7.03551C623.885 6.71501 624.32 6.53496 624.773 6.53496H647.844C648.298 6.53496 648.732 6.71501 649.053 7.03551C649.373 7.35601 649.553 7.7907 649.553 8.24396C649.553 8.69721 649.373 9.13189 649.053 9.45239C648.732 9.77289 648.298 9.95296 647.844 9.95296Z" fill="#D5A021"/>
<path d="M647.844 16.3617H624.773C624.32 16.3617 623.885 16.1817 623.564 15.8612C623.244 15.5407 623.064 15.106 623.064 14.6527C623.064 14.1995 623.244 13.7648 623.564 13.4443C623.885 13.1238 624.32 12.9437 624.773 12.9437H647.844C648.298 12.9437 648.732 13.1238 649.053 13.4443C649.373 13.7648 649.553 14.1995 649.553 14.6527C649.553 15.106 649.373 15.5407 649.053 15.8612C648.732 16.1817 648.298 16.3617 647.844 16.3617Z" fill="#D5A021"/>
<path d="M647.844 22.7705H624.773C624.32 22.7705 623.885 22.5905 623.564 22.27C623.244 21.9495 623.064 21.5148 623.064 21.0615C623.064 20.6083 623.244 20.1736 623.564 19.8531C623.885 19.5326 624.32 19.3525 624.773 19.3525H647.844C648.298 19.3525 648.732 19.5326 649.053 19.8531C649.373 20.1736 649.553 20.6083 649.553 21.0615C649.553 21.5148 649.373 21.9495 649.053 22.27C648.732 22.5905 648.298 22.7705 647.844 22.7705Z" fill="#D5A021"/>
<path d="M477.17 303.109H194.023C185.273 303.099 176.884 299.618 170.697 293.431C164.51 287.244 161.03 278.855 161.02 270.105V115.89C161.03 107.14 164.51 98.7517 170.698 92.5648C176.885 86.3779 185.273 82.898 194.023 82.8884H477.17C485.92 82.898 494.308 86.3779 500.495 92.5648C506.682 98.7517 510.163 107.14 510.172 115.89V270.105C510.163 278.855 506.683 287.244 500.495 293.431C494.308 299.618 485.92 303.099 477.17 303.109V303.109Z" fill="#F2F2F2"/>
<path d="M404.316 161.305C406.595 160.311 401.974 159.733 396.73 159.542C391.487 159.352 385.144 159.363 381.793 158.822C378.553 158.299 378.791 157.368 378.519 156.526C378.246 155.683 377 154.819 371.944 154.631C365.642 154.398 355.251 155.297 350.494 154.757C346.055 154.254 348.694 152.674 342.221 152.614C338.525 152.579 333.763 153.1 329.65 153.226C326.735 153.352 323.814 153.2 320.928 152.771C318.923 152.442 317.527 152.026 315.271 151.736C309.348 150.974 297.759 151.23 287.416 152.206C277.073 153.183 268.207 154.782 263.207 156.367C258.206 157.951 256.825 159.511 257.99 160.834C258.733 161.679 260.637 162.469 265.253 162.808C273.889 163.443 289.263 162.35 298.186 162.928C303.16 163.25 305.366 164.048 309.729 164.485C314.417 164.954 321.28 164.979 328.022 164.968C342.061 164.944 356.459 164.8 371.14 164.536C377.272 164.425 383.698 164.282 390.223 163.755C396.748 163.228 403.404 162.213 404.78 161.26" fill="#343536"/>
<path d="M453.598 143.719C453.489 143.44 453.371 143.164 453.248 142.894C453.447 142.972 453.645 143.057 453.842 143.149L453.598 143.719Z" fill="#BBBCBC"/>
<path d="M347.117 177.408C345.305 174.41 343.157 171.209 339.793 170.23C335.897 169.096 331.896 171.348 328.501 173.571C318.35 180.217 308.574 187.42 299.219 195.146L299.229 195.262L321.08 193.755C326.342 193.392 331.786 192.979 336.436 190.49C338.201 189.545 339.921 188.283 341.921 188.195C344.405 188.086 346.572 189.821 348.274 191.634C358.345 202.358 361.259 218.757 372.557 228.178C365.433 210.609 356.926 193.632 347.117 177.408V177.408Z" fill="#343536"/>
<path d="M409.019 268.364C407.905 266.958 407.45 266.628 406.352 265.209C397.407 253.641 389 241.682 381.131 229.332C375.785 220.945 370.705 212.396 365.89 203.687C363.598 199.546 361.368 195.373 359.201 191.168C357.52 187.907 355.876 184.626 354.27 181.326C353.81 180.384 353.364 179.437 352.92 178.488C351.873 176.256 350.846 174.013 349.744 171.812C348.487 169.303 346.957 166.673 344.65 164.987C343.599 164.188 342.344 163.705 341.029 163.594C339.177 163.604 337.364 164.124 335.788 165.095C323.854 171.369 312.716 179.049 302.611 187.974C292.49 196.862 283.444 206.904 275.657 217.894C275.418 218.234 274.855 217.909 275.095 217.567C276.042 216.228 277.008 214.903 277.992 213.593C290.233 197.314 305.241 183.314 322.332 172.235C325.208 170.371 328.137 168.595 331.12 166.907C332.624 166.055 334.134 165.214 335.671 164.426C337.143 163.563 338.794 163.051 340.496 162.931C346.35 162.84 349.382 169.47 351.464 173.931C352.118 175.335 352.781 176.735 353.451 178.13C355.984 183.428 358.614 188.677 361.342 193.878C363.026 197.089 364.746 200.282 366.503 203.455C371.972 213.338 377.785 223.02 383.941 232.502C392.097 245.063 400.187 256.159 409.478 267.904C409.734 268.229 409.277 268.693 409.019 268.364Z" fill="#F7F8FA"/>
<path d="M302.032 184.7C301.692 184.321 301.354 183.941 301.012 183.562C298.312 180.576 295.415 177.625 291.708 175.914C289.94 175.072 288.01 174.624 286.052 174.603C284.032 174.658 282.041 175.093 280.181 175.883C279.297 176.236 278.432 176.637 277.581 177.064C276.608 177.554 275.652 178.076 274.701 178.603C272.916 179.591 271.153 180.622 269.414 181.697C265.954 183.835 262.602 186.137 259.358 188.602C257.677 189.88 256.03 191.201 254.418 192.563C252.919 193.828 251.45 195.127 250.011 196.461C249.703 196.745 249.244 196.285 249.552 196.001C249.931 195.648 250.314 195.297 250.698 194.951C251.781 193.971 252.882 193.011 254 192.069C256.039 190.348 258.131 188.694 260.275 187.107C263.61 184.637 267.059 182.334 270.623 180.199C272.404 179.133 274.21 178.112 276.04 177.136C276.593 176.841 277.152 176.553 277.717 176.28C279 175.633 280.334 175.09 281.704 174.657C283.645 174.029 285.699 173.827 287.725 174.065C289.682 174.35 291.567 175.002 293.281 175.987C296.921 178.022 299.744 181.168 302.491 184.238C302.769 184.55 302.312 185.012 302.032 184.7Z" fill="#F7F8FA"/>
<path d="M376.616 215.64L385.339 212.45L389.669 210.866C391.069 210.302 392.496 209.811 393.945 209.393C395.212 209.031 396.557 209.048 397.815 209.443C398.936 209.858 399.963 210.494 400.833 211.314C401.723 212.133 402.55 213.016 403.309 213.958C404.252 215.091 405.181 216.236 406.114 217.377C409.965 222.087 413.791 226.817 417.592 231.568C421.393 236.319 425.168 241.09 428.918 245.881C432.677 250.683 436.411 255.506 440.118 260.349C440.572 260.942 441.026 261.536 441.479 262.13C441.73 262.458 442.295 262.135 442.041 261.802C438.306 256.91 434.545 252.039 430.758 247.187C426.962 242.324 423.14 237.481 419.291 232.659C415.443 227.837 411.568 223.037 407.668 218.257C406.696 217.066 405.723 215.876 404.748 214.688C403.925 213.686 403.112 212.672 402.21 211.74C400.554 210.027 398.486 208.514 396.01 208.473C394.559 208.524 393.13 208.838 391.792 209.4C390.334 209.927 388.879 210.465 387.423 210.998L378.639 214.21L376.443 215.013C376.054 215.156 376.222 215.784 376.616 215.64L376.616 215.64Z" fill="#F7F8FA"/>
<path d="M290.56 179.671C288.318 178.566 285.823 178.078 283.331 178.256C280.839 178.435 278.439 179.273 276.377 180.685C284.147 182.025 291.831 183.819 299.391 186.056C296.252 184.216 293.796 181.334 290.56 179.671Z" fill="#343536"/>
<path d="M276.334 180.677L275.48 181.371C275.769 181.128 276.069 180.9 276.377 180.685L276.334 180.677Z" fill="#F2F2F2"/>
<path d="M400.505 215.672C399.741 214.547 398.677 213.658 397.434 213.108L396.235 213.155C405.362 229.284 417.689 243.377 432.46 254.569C421.808 241.603 411.157 228.638 400.505 215.672Z" fill="#343536"/>
<path d="M242.511 138.862C249.168 138.862 254.565 133.465 254.565 126.808C254.565 120.151 249.168 114.754 242.511 114.754C235.853 114.754 230.457 120.151 230.457 126.808C230.457 133.465 235.853 138.862 242.511 138.862Z" fill="#343536"/>
<path d="M279.417 126.18C276.227 122.833 272.522 119.78 268.136 118.167C266.915 117.716 265.648 117.398 264.358 117.218C264.347 117.216 264.338 117.218 264.327 117.218C264.306 117.212 264.285 117.208 264.264 117.205C262.459 116.975 260.628 117.086 258.865 117.531C258.003 117.747 257.161 118.04 256.351 118.407C255.538 118.803 254.751 119.25 253.993 119.743C252.388 120.704 250.622 121.363 248.78 121.688C247.856 121.854 246.92 121.946 245.981 121.962C245.182 121.935 244.385 122.05 243.626 122.301C242.801 122.612 242.061 123.11 241.463 123.757C240.865 124.404 240.427 125.182 240.184 126.029C240.165 126.104 240.17 126.184 240.2 126.256C240.229 126.328 240.28 126.388 240.346 126.429C240.555 126.579 240.759 126.748 240.978 126.882C241.173 126.971 241.382 127.028 241.595 127.05C241.944 127.124 242.293 127.195 242.643 127.264C243.931 127.52 245.225 127.746 246.524 127.942C249.152 128.34 251.795 128.62 254.452 128.783C262.775 129.286 271.127 128.609 279.261 126.772C279.32 126.755 279.374 126.723 279.417 126.679C279.46 126.634 279.491 126.58 279.506 126.52C279.522 126.461 279.522 126.398 279.507 126.338C279.491 126.279 279.46 126.224 279.417 126.18V126.18Z" fill="#F0F0F0"/>
<path d="M243.083 134.239C241.861 133.788 240.594 133.47 239.304 133.29C239.294 133.288 239.284 133.29 239.274 133.29C239.253 133.284 239.232 133.28 239.21 133.277C237.406 133.047 235.575 133.158 233.811 133.603C232.949 133.819 232.108 134.112 231.298 134.479C230.485 134.875 229.697 135.322 228.939 135.815C227.335 136.776 225.568 137.435 223.727 137.76C222.803 137.926 221.867 138.018 220.928 138.035C220.129 138.007 219.331 138.122 218.573 138.374C217.748 138.684 217.007 139.182 216.41 139.829C215.812 140.476 215.374 141.254 215.13 142.101C215.111 142.176 215.117 142.256 215.146 142.328C215.176 142.4 215.227 142.461 215.293 142.501C215.502 142.651 215.705 142.821 215.925 142.954C216.12 143.043 216.328 143.1 216.542 143.122C216.891 143.196 217.24 143.267 217.59 143.336C218.878 143.592 220.171 143.818 221.47 144.014C224.099 144.412 226.741 144.692 229.398 144.855C237.721 145.358 246.074 144.681 254.207 142.844C254.266 142.827 254.32 142.795 254.363 142.751C254.406 142.706 254.437 142.652 254.453 142.592C254.469 142.533 254.469 142.47 254.453 142.41C254.437 142.351 254.407 142.296 254.364 142.252C251.174 138.905 247.469 135.852 243.083 134.239Z" fill="#F0F0F0"/>
<path d="M447.688 253.763L454.108 248.889L457.238 252.018L446.778 259.176L447.688 253.763Z" fill="#BBBCBC"/>
<path d="M441.699 267.185H419.737L420.507 264.69C425.281 262.961 422.599 259.246 427.141 256.976C438.249 251.422 442.549 234.848 440.922 228.297L448.202 227.989C448.202 227.989 458.254 256.537 441.699 267.185Z" fill="#343536"/>
<path d="M460.449 255.453C459.793 256.03 458.954 256.356 458.081 256.372C457.207 256.388 456.356 256.094 455.679 255.542L455.665 255.531L455.664 255.512C455.656 255.206 455.609 254.903 455.523 254.61C455.518 254.821 455.487 255.031 455.431 255.234L455.412 255.303L455.363 255.252C455.321 255.208 455.279 255.163 455.241 255.119C455.013 254.861 454.822 254.572 454.674 254.261C453.963 252.8 452.934 251.518 451.662 250.508C451.435 250.323 451.224 250.12 451.031 249.9C450.214 248.971 449.755 247.781 449.735 246.544C449.716 245.307 450.137 244.104 450.924 243.149C451.711 242.195 452.811 241.551 454.029 241.334C455.247 241.118 456.503 241.341 457.57 241.966L457.603 241.985L457.586 242.018C457.462 242.275 457.299 242.511 457.102 242.716C457.373 242.57 457.624 242.389 457.848 242.178L457.871 242.156L457.898 242.174C458.249 242.417 458.569 242.701 458.85 243.022L458.881 243.057C459.096 243.302 459.36 243.5 459.657 243.637C459.953 243.774 460.276 243.847 460.602 243.851C461.135 243.86 461.66 243.984 462.14 244.215C462.621 244.446 463.045 244.779 463.385 245.19C463.724 245.601 463.971 246.08 464.108 246.595C464.244 247.111 464.267 247.649 464.176 248.175L464.172 248.199L464.148 248.206C463.734 248.348 463.295 248.403 462.858 248.367C463.223 248.526 463.611 248.623 464.007 248.655L464.058 248.659L464.042 248.708C463.836 249.327 463.468 249.881 462.978 250.312L462.964 250.325L462.949 250.338C462.583 250.653 462.284 251.037 462.069 251.469C461.854 251.901 461.727 252.372 461.697 252.853C461.672 253.348 461.549 253.832 461.335 254.279C461.121 254.725 460.82 255.125 460.449 255.453V255.453Z" fill="#343536"/>
<path opacity="0.15" d="M461.121 254.267C461.115 254.4 461.101 254.532 461.08 254.664C461.439 254.111 461.646 253.473 461.68 252.815C461.684 252.714 461.695 252.614 461.709 252.514C461.36 253.035 461.157 253.64 461.121 254.267V254.267Z" fill="black"/>
<path opacity="0.15" d="M462.283 249.781C462.576 249.908 462.885 249.995 463.201 250.04C463.323 249.912 463.435 249.775 463.537 249.63C463.134 249.765 462.707 249.816 462.283 249.781V249.781Z" fill="black"/>
<path opacity="0.15" d="M463.636 248.569C463.668 248.888 463.66 249.21 463.609 249.526C463.785 249.26 463.924 248.972 464.025 248.67L464.041 248.621L463.99 248.617C463.871 248.607 463.753 248.591 463.636 248.569Z" fill="black"/>
<path opacity="0.15" d="M463.294 245.066C462.954 244.68 462.538 244.37 462.072 244.154C461.605 243.938 461.099 243.822 460.585 243.813C460.259 243.809 459.936 243.736 459.64 243.599C459.343 243.462 459.079 243.264 458.864 243.019L458.833 242.984C458.552 242.663 458.232 242.379 457.881 242.136L457.854 242.118L457.831 242.14C457.607 242.351 457.356 242.532 457.085 242.678C457.282 242.473 457.445 242.237 457.569 241.98L457.586 241.947L457.553 241.928C456.845 241.513 456.049 241.272 455.23 241.224C454.412 241.176 453.593 241.322 452.841 241.65C452.089 241.979 451.426 242.48 450.905 243.114C450.384 243.748 450.02 244.495 449.843 245.297C450.184 244.698 450.64 244.173 451.185 243.752C451.73 243.331 452.353 243.022 453.019 242.844C453.684 242.666 454.378 242.621 455.06 242.713C455.743 242.805 456.401 243.031 456.995 243.379L457.028 243.398L457.011 243.432C456.887 243.688 456.724 243.924 456.527 244.13C456.798 243.984 457.048 243.803 457.272 243.591L457.296 243.569L457.323 243.588C457.673 243.83 457.993 244.115 458.275 244.435L458.305 244.47C458.52 244.716 458.785 244.914 459.081 245.051C459.378 245.188 459.7 245.26 460.027 245.264C460.881 245.279 461.704 245.589 462.355 246.142C463.006 246.696 463.445 247.457 463.597 248.298C463.777 248.266 463.956 248.222 464.131 248.168L464.155 248.161L464.159 248.137C464.255 247.593 464.227 247.034 464.077 246.502C463.927 245.971 463.66 245.48 463.294 245.066V245.066Z" fill="black"/>
<path d="M471.065 229.868C471.064 232.681 470.067 235.403 468.249 237.549C466.431 239.696 463.911 241.128 461.136 241.591L461.078 241.601L461.032 241.563C460.276 240.932 459.441 240.402 458.548 239.986C459.05 240.446 459.492 240.967 459.864 241.537L459.99 241.727L459.762 241.738C459.565 241.748 459.37 241.752 459.181 241.752C458.071 241.753 456.967 241.6 455.899 241.297C450.857 239.908 445.568 239.669 440.421 240.596C439.492 240.752 438.551 240.831 437.608 240.831C433.625 240.829 429.773 239.41 426.74 236.827C423.708 234.244 421.695 230.666 421.06 226.734C420.425 222.802 421.211 218.772 423.276 215.366C425.342 211.96 428.552 209.401 432.333 208.147L432.448 208.108L432.494 208.221C432.851 209.066 433.074 209.962 433.152 210.876C433.375 209.91 433.47 208.919 433.436 207.928L433.432 207.824L433.534 207.798C434.866 207.466 436.235 207.298 437.608 207.298L437.757 207.299C438.809 207.302 439.85 207.083 440.812 206.657C441.773 206.231 442.634 205.607 443.339 204.826C444.494 203.557 445.91 202.552 447.491 201.883C449.071 201.213 450.777 200.893 452.493 200.946C454.208 200.999 455.892 201.422 457.428 202.188C458.965 202.953 460.317 204.043 461.392 205.381L461.442 205.443L461.409 205.515C460.872 206.819 460.07 207.997 459.055 208.976C460.214 208.432 461.274 207.7 462.194 206.81L462.312 206.695L462.396 206.838C463.455 208.655 464.013 210.721 464.012 212.824L464.012 212.884L464.012 212.948C463.995 214.501 464.289 216.042 464.877 217.481C465.464 218.919 466.332 220.226 467.431 221.324C468.575 222.435 469.486 223.762 470.11 225.23C470.734 226.697 471.058 228.274 471.065 229.868V229.868Z" fill="#343536"/>
<g opacity="0.15">
<path opacity="0.15" d="M456.536 201.784C456.126 202.464 455.622 203.082 455.039 203.621C455.874 203.228 456.659 202.738 457.378 202.158C457.102 202.023 456.822 201.898 456.536 201.784Z" fill="black"/>
<path opacity="0.15" d="M463.415 215.969C464.061 216.596 464.634 217.294 465.124 218.051C464.387 216.45 464.008 214.709 464.012 212.948L464.012 212.884L464.012 212.824C464.013 210.721 463.455 208.655 462.396 206.838L462.312 206.695L462.194 206.81C461.538 207.443 460.811 207.997 460.026 208.46C460.197 211.294 461.403 213.966 463.415 215.969V215.969Z" fill="black"/>
<path opacity="0.15" d="M459.996 207.469L459.996 207.529L459.996 207.593C459.996 207.709 459.998 207.826 460.001 207.942C460.561 207.189 461.033 206.375 461.409 205.515L461.442 205.443L461.392 205.381C460.765 204.6 460.042 203.902 459.242 203.301C459.74 204.634 459.996 206.046 459.996 207.469V207.469Z" fill="black"/>
<path opacity="0.15" d="M467.431 221.324C466.859 220.768 466.351 220.15 465.917 219.481C466.695 221.141 467.079 222.958 467.039 224.79C466.998 226.623 466.533 228.421 465.681 230.044C464.829 231.667 463.612 233.071 462.127 234.145C460.642 235.219 458.928 235.935 457.12 236.236L457.061 236.246L457.016 236.208C456.259 235.577 455.424 235.047 454.532 234.631C455.033 235.091 455.475 235.612 455.847 236.182L455.974 236.372L455.746 236.383C455.549 236.392 455.353 236.397 455.165 236.397C454.055 236.398 452.95 236.245 451.883 235.942C446.841 234.553 441.552 234.314 436.405 235.241C435.476 235.397 434.535 235.476 433.592 235.476C429.484 235.479 425.518 233.967 422.455 231.229C423.814 234.099 425.959 236.524 428.641 238.224C431.324 239.924 434.433 240.828 437.608 240.831C438.551 240.831 439.492 240.752 440.421 240.596C445.568 239.669 450.857 239.908 455.899 241.297C456.967 241.6 458.071 241.753 459.181 241.752C459.37 241.752 459.565 241.748 459.762 241.738L459.99 241.727L459.864 241.537C459.492 240.967 459.05 240.446 458.548 239.986C459.441 240.402 460.276 240.932 461.032 241.563L461.078 241.601L461.136 241.591C463.307 241.23 465.336 240.273 466.994 238.826C468.653 237.379 469.877 235.5 470.53 233.398C471.183 231.296 471.239 229.054 470.692 226.922C470.145 224.79 469.016 222.852 467.431 221.324L467.431 221.324Z" fill="black"/>
</g>
<path d="M231.808 247.342L223.107 240.736L218.866 244.977L233.04 254.677L231.808 247.342Z" fill="#BBBCBC"/>
<path d="M239.923 265.531H269.686L268.642 262.149C262.172 259.807 265.806 254.772 259.652 251.695C244.599 244.169 238.772 221.709 240.976 212.831L231.111 212.413C231.111 212.413 217.488 251.101 239.923 265.531Z" fill="#343536"/>
<path d="M212.823 246.108C212.782 245.456 212.61 244.818 212.319 244.233C212.027 243.648 211.622 243.126 211.127 242.7L211.107 242.682L211.087 242.665C210.423 242.081 209.925 241.33 209.645 240.491L209.623 240.425L209.692 240.419C210.229 240.376 210.755 240.244 211.249 240.029C210.658 240.078 210.063 240.004 209.501 239.811L209.469 239.801L209.464 239.768C209.34 239.057 209.371 238.327 209.556 237.628C209.741 236.93 210.075 236.28 210.536 235.723C210.996 235.167 211.571 234.716 212.222 234.403C212.873 234.09 213.584 233.921 214.306 233.909C214.749 233.904 215.186 233.805 215.588 233.619C215.99 233.434 216.348 233.166 216.639 232.833L216.681 232.785C217.062 232.351 217.496 231.965 217.971 231.637L218.007 231.612L218.039 231.642C218.343 231.928 218.683 232.173 219.05 232.372C218.783 232.093 218.561 231.773 218.394 231.425L218.371 231.38L218.415 231.354C219.862 230.508 221.563 230.205 223.214 230.499C224.864 230.793 226.356 231.664 227.422 232.958C228.489 234.252 229.06 235.883 229.033 237.559C229.007 239.235 228.384 240.847 227.277 242.106C227.015 242.404 226.729 242.68 226.421 242.93C224.698 244.299 223.303 246.037 222.341 248.016C222.14 248.438 221.881 248.829 221.572 249.18C221.52 249.239 221.464 249.3 221.406 249.359L221.339 249.428L221.314 249.335C221.238 249.06 221.196 248.775 221.19 248.489C221.073 248.886 221.009 249.298 220.998 249.712L220.997 249.737L220.978 249.753C220.26 250.339 219.394 250.713 218.476 250.835C217.557 250.957 216.623 250.822 215.777 250.444C214.932 250.066 214.208 249.46 213.686 248.695C213.164 247.929 212.866 247.034 212.823 246.109L212.823 246.108Z" fill="#343536"/>
<path opacity="0.15" d="M213.603 248.024C213.612 248.204 213.631 248.384 213.659 248.562C213.172 247.813 212.891 246.949 212.846 246.057C212.84 245.92 212.825 245.784 212.806 245.649C213.28 246.355 213.555 247.175 213.603 248.024Z" fill="black"/>
<path opacity="0.15" d="M212.029 241.945C211.632 242.117 211.213 242.235 210.785 242.296C210.62 242.122 210.467 241.936 210.329 241.74C210.876 241.923 211.454 241.993 212.029 241.945V241.945Z" fill="black"/>
<path opacity="0.15" d="M210.196 240.302C210.151 240.734 210.163 241.171 210.231 241.6C209.994 241.239 209.805 240.849 209.668 240.439L209.646 240.373L209.716 240.367C209.877 240.354 210.037 240.332 210.196 240.302V240.302Z" fill="black"/>
<path opacity="0.15" d="M210.658 235.555C211.119 235.033 211.683 234.612 212.315 234.32C212.947 234.027 213.633 233.87 214.33 233.858C214.772 233.852 215.209 233.753 215.611 233.568C216.013 233.382 216.371 233.114 216.663 232.781L216.704 232.734C217.085 232.3 217.519 231.914 217.994 231.585L218.031 231.56L218.063 231.59C218.366 231.876 218.706 232.122 219.073 232.32C218.806 232.041 218.584 231.722 218.417 231.374L218.394 231.328L218.438 231.302C219.398 230.741 220.476 230.414 221.586 230.349C222.696 230.283 223.805 230.481 224.824 230.927C225.843 231.372 226.742 232.051 227.448 232.91C228.154 233.769 228.647 234.782 228.887 235.868C228.425 235.057 227.807 234.345 227.068 233.775C226.329 233.205 225.485 232.786 224.583 232.545C223.682 232.303 222.741 232.243 221.816 232.367C220.891 232.491 220 232.798 219.195 233.269L219.151 233.295L219.173 233.341C219.341 233.689 219.562 234.008 219.829 234.287C219.462 234.089 219.123 233.843 218.819 233.557L218.787 233.527L218.751 233.552C218.275 233.881 217.842 234.267 217.46 234.701L217.419 234.748C217.128 235.081 216.769 235.349 216.367 235.535C215.965 235.72 215.529 235.819 215.086 235.825C213.929 235.844 212.814 236.265 211.932 237.014C211.049 237.764 210.455 238.796 210.249 239.936C210.004 239.892 209.762 239.833 209.525 239.759L209.493 239.75L209.487 239.717C209.357 238.98 209.395 238.223 209.598 237.502C209.8 236.782 210.163 236.116 210.658 235.555V235.555Z" fill="black"/>
<path d="M205.052 203.381C206.541 201.893 207.718 200.122 208.514 198.173C209.31 196.224 209.708 194.135 209.686 192.03C209.686 192.001 209.686 191.972 209.686 191.944L209.685 191.863C209.684 189.012 210.44 186.213 211.876 183.75L211.989 183.557L212.15 183.713C213.396 184.919 214.833 185.911 216.403 186.647C215.027 185.322 213.941 183.725 213.214 181.958L213.169 181.859L213.237 181.775C214.693 179.962 216.526 178.486 218.608 177.449C220.689 176.411 222.971 175.837 225.296 175.765C227.621 175.694 229.933 176.127 232.075 177.035C234.216 177.943 236.136 179.304 237.701 181.024C238.656 182.083 239.823 182.928 241.126 183.506C242.429 184.083 243.84 184.379 245.265 184.375L245.467 184.374C247.328 184.374 249.183 184.601 250.989 185.051L251.127 185.086L251.122 185.228C251.075 186.57 251.204 187.913 251.505 189.222C251.612 187.984 251.913 186.769 252.398 185.624L252.46 185.472L252.616 185.524C257.739 187.224 262.09 190.692 264.889 195.307C267.688 199.923 268.753 205.384 267.893 210.713C267.033 216.041 264.304 220.89 260.195 224.39C256.086 227.891 250.865 229.814 245.467 229.816C244.189 229.816 242.914 229.71 241.655 229.498C234.68 228.241 227.512 228.566 220.68 230.448C219.233 230.859 217.736 231.066 216.233 231.065C215.977 231.065 215.712 231.058 215.445 231.045L215.136 231.031L215.307 230.773C215.812 230.001 216.411 229.295 217.09 228.672C215.881 229.235 214.749 229.954 213.724 230.808L213.662 230.86L213.583 230.847C210.64 230.357 207.892 229.06 205.644 227.099C203.396 225.138 201.737 222.592 200.852 219.743C199.968 216.895 199.892 213.856 200.634 210.967C201.375 208.078 202.905 205.451 205.052 203.381L205.052 203.381Z" fill="#343536"/>
<g opacity="0.15">
<path opacity="0.15" d="M219.817 176.901C220.372 177.823 221.055 178.661 221.846 179.39C220.714 178.859 219.65 178.194 218.676 177.409C219.049 177.225 219.43 177.056 219.817 176.901Z" fill="black"/>
<path opacity="0.15" d="M210.495 196.124C209.619 196.974 208.842 197.921 208.179 198.945C209.177 196.777 209.691 194.417 209.686 192.03C209.686 192.001 209.686 191.972 209.686 191.944L209.686 191.863C209.684 189.012 210.44 186.213 211.876 183.75L211.989 183.557L212.15 183.713C213.038 184.571 214.024 185.322 215.087 185.949C214.856 189.789 213.222 193.41 210.495 196.124V196.124Z" fill="black"/>
<path opacity="0.15" d="M215.128 184.606L215.128 184.687L215.129 184.773C215.129 184.931 215.126 185.089 215.121 185.246C214.363 184.226 213.723 183.123 213.214 181.958L213.169 181.859L213.237 181.775C214.086 180.718 215.065 179.771 216.15 178.958C215.475 180.764 215.128 182.677 215.128 184.606V184.606Z" fill="black"/>
<path opacity="0.15" d="M205.052 203.381C205.827 202.628 206.515 201.79 207.105 200.884C206.049 203.133 205.529 205.595 205.584 208.079C205.64 210.562 206.269 212.999 207.424 215.199C208.579 217.398 210.227 219.3 212.24 220.756C214.253 222.212 216.575 223.182 219.026 223.59L219.105 223.603L219.167 223.551C220.192 222.697 221.323 221.978 222.533 221.415C221.853 222.038 221.254 222.744 220.75 223.516L220.579 223.774L220.888 223.789C221.154 223.802 221.42 223.808 221.675 223.808C223.179 223.809 224.676 223.602 226.123 223.191C232.955 221.309 240.123 220.984 247.097 222.241C248.357 222.453 249.632 222.559 250.909 222.559C256.477 222.563 261.851 220.514 266.002 216.804C264.161 220.693 261.254 223.98 257.619 226.284C253.984 228.587 249.77 229.812 245.467 229.816C244.189 229.816 242.914 229.71 241.655 229.498C234.68 228.241 227.512 228.566 220.68 230.448C219.233 230.859 217.736 231.066 216.233 231.065C215.977 231.065 215.712 231.058 215.445 231.045L215.136 231.031L215.307 230.773C215.812 230.001 216.411 229.295 217.09 228.672C215.881 229.235 214.749 229.954 213.724 230.808L213.662 230.86L213.583 230.847C210.64 230.357 207.892 229.06 205.644 227.099C203.396 225.138 201.737 222.592 200.852 219.743C199.968 216.895 199.892 213.856 200.634 210.967C201.375 208.078 202.905 205.451 205.052 203.381V203.381Z" fill="black"/>
</g>
<path d="M397.322 187.551C397.714 187.551 398.031 187.233 398.031 186.842C398.031 186.45 397.714 186.133 397.322 186.133C396.931 186.133 396.613 186.45 396.613 186.842C396.613 187.233 396.931 187.551 397.322 187.551Z" fill="#C8C8C8"/>
<path d="M411.031 155.643C411.422 155.643 411.74 155.326 411.74 154.934C411.74 154.542 411.422 154.225 411.031 154.225C410.639 154.225 410.322 154.542 410.322 154.934C410.322 155.326 410.639 155.643 411.031 155.643Z" fill="#C8C8C8"/>
<path d="M284.109 134.371C284.501 134.371 284.818 134.054 284.818 133.662C284.818 133.271 284.501 132.953 284.109 132.953C283.717 132.953 283.4 133.271 283.4 133.662C283.4 134.054 283.717 134.371 284.109 134.371Z" fill="#BBBCBC"/>
<path d="M277.018 162.97C277.41 162.97 277.727 162.653 277.727 162.261C277.727 161.869 277.41 161.552 277.018 161.552C276.627 161.552 276.309 161.869 276.309 162.261C276.309 162.653 276.627 162.97 277.018 162.97Z" fill="#C8C8C8"/>
<path d="M242.511 155.643C242.902 155.643 243.22 155.326 243.22 154.934C243.22 154.542 242.902 154.225 242.511 154.225C242.119 154.225 241.802 154.542 241.802 154.934C241.802 155.326 242.119 155.643 242.511 155.643Z" fill="#BBBCBC"/>
<path d="M437.266 138.626C437.658 138.626 437.975 138.308 437.975 137.917C437.975 137.525 437.658 137.208 437.266 137.208C436.875 137.208 436.557 137.525 436.557 137.917C436.557 138.308 436.875 138.626 437.266 138.626Z" fill="#BBBCBC"/>
<path d="M409.093 247.836C408.614 247.019 408.368 246.085 408.381 245.137C408.395 244.189 408.669 243.263 409.172 242.46C409.717 244.441 410.946 246.166 412.641 247.328C413.296 247.775 414.071 248.202 414.295 248.963C414.413 249.447 414.34 249.959 414.092 250.391C413.844 250.818 413.543 251.212 413.195 251.562L413.163 251.681C411.485 250.79 410.079 249.461 409.093 247.836V247.836Z" fill="#343536"/>
<path d="M333.696 209.311C333.217 208.493 332.971 207.559 332.985 206.611C332.999 205.663 333.272 204.738 333.775 203.934C334.321 205.915 335.549 207.64 337.244 208.803C337.899 209.249 338.674 209.677 338.898 210.437C339.016 210.922 338.943 211.433 338.695 211.866C338.447 212.293 338.146 212.686 337.798 213.037L337.766 213.156C336.088 212.264 334.682 210.935 333.696 209.311V209.311Z" fill="#343536"/>
<path d="M261.844 236.728C261.365 235.91 261.119 234.976 261.133 234.028C261.147 233.081 261.42 232.155 261.924 231.351C262.469 233.333 263.698 235.057 265.392 236.22C266.047 236.666 266.822 237.094 267.047 237.854C267.164 238.339 267.092 238.85 266.844 239.283C266.596 239.71 266.294 240.103 265.947 240.454L265.915 240.573C264.237 239.681 262.83 238.353 261.844 236.728V236.728Z" fill="#343536"/>
<path d="M402.049 130.826H399.45V270.038H402.049V130.826Z" fill="#343536"/>
<path d="M409.376 127.99C409.376 123.29 405.567 119.481 400.868 119.481C396.168 119.481 392.359 123.29 392.359 127.99V127.99C392.359 132.689 396.168 136.498 400.868 136.498C405.567 136.498 409.376 132.689 409.376 127.99Z" fill="#343536"/>
<path d="M366.958 253.589L360.289 250.647V248.118L362.666 248.104C363.035 248.102 363.393 247.985 363.692 247.768C363.991 247.552 364.214 247.247 364.331 246.897L366 241.888C366.089 241.623 366.113 241.34 366.071 241.064C366.028 240.787 365.921 240.525 365.758 240.298C365.594 240.071 365.379 239.886 365.13 239.758C364.881 239.631 364.605 239.564 364.326 239.564H360.289V237.211H365.356C365.756 237.211 366.144 237.075 366.456 236.826C366.769 236.577 366.987 236.23 367.077 235.841L368.227 230.839C368.286 230.58 368.287 230.311 368.228 230.052C368.169 229.794 368.053 229.551 367.887 229.344C367.722 229.136 367.512 228.968 367.273 228.853C367.034 228.738 366.772 228.678 366.506 228.678H360.289V228.089C360.289 227.777 360.165 227.478 359.944 227.257C359.723 227.037 359.424 226.913 359.112 226.913C358.8 226.913 358.501 227.037 358.28 227.257C358.059 227.478 357.935 227.777 357.935 228.089V228.678H316.252V228.089C316.252 227.777 316.128 227.478 315.908 227.257C315.687 227.037 315.388 226.913 315.075 226.913C314.763 226.913 314.464 227.037 314.243 227.257C314.023 227.478 313.899 227.777 313.899 228.089V228.678H308.956C308.691 228.678 308.429 228.738 308.19 228.853C307.95 228.968 307.74 229.136 307.575 229.344C307.41 229.551 307.293 229.794 307.235 230.052C307.176 230.311 307.176 230.58 307.236 230.839L308.386 235.841C308.475 236.23 308.694 236.577 309.006 236.826C309.319 237.075 309.707 237.211 310.106 237.211H313.899V239.564H311.137C310.859 239.564 310.584 239.63 310.336 239.756C310.088 239.883 309.874 240.066 309.71 240.29C309.546 240.515 309.438 240.776 309.394 241.05C309.35 241.325 309.371 241.606 309.457 241.871L311.161 247.16C311.276 247.517 311.502 247.829 311.806 248.049C312.11 248.269 312.476 248.386 312.851 248.384L313.899 248.378V250.647L308.504 253.589C308.036 253.589 307.587 253.775 307.256 254.106C306.925 254.438 306.739 254.887 306.739 255.355V255.355C306.739 255.823 306.925 256.272 307.256 256.603C307.587 256.934 308.036 257.12 308.504 257.12H313.899V270.066C313.898 270.221 313.928 270.375 313.987 270.518C314.046 270.661 314.133 270.791 314.242 270.901C314.351 271.01 314.481 271.097 314.624 271.157C314.767 271.216 314.921 271.247 315.075 271.247C315.23 271.247 315.384 271.216 315.527 271.157C315.67 271.097 315.8 271.01 315.909 270.901C316.018 270.791 316.105 270.661 316.164 270.518C316.223 270.375 316.253 270.221 316.252 270.066V257.12H357.935V270.066C357.935 270.378 358.059 270.678 358.28 270.899C358.501 271.119 358.8 271.243 359.112 271.243C359.424 271.243 359.723 271.119 359.944 270.899C360.165 270.678 360.289 270.378 360.289 270.066V257.12H366.958C367.426 257.12 367.875 256.934 368.206 256.603C368.538 256.272 368.724 255.823 368.724 255.355C368.724 255.123 368.678 254.893 368.589 254.679C368.5 254.465 368.37 254.27 368.206 254.106C368.043 253.943 367.848 253.813 367.634 253.724C367.42 253.635 367.19 253.589 366.958 253.589V253.589ZM316.252 237.211H357.935V239.564H316.252V237.211ZM316.252 250.647V248.365L357.935 248.131V250.647H316.252Z" fill="#343536"/>
<path d="M462.919 346.634H208.274C207.479 346.635 206.691 346.48 205.955 346.176C205.22 345.872 204.552 345.427 203.989 344.864C203.426 344.302 202.98 343.635 202.675 342.9C202.37 342.165 202.214 341.377 202.214 340.582C202.214 339.786 202.37 338.998 202.675 338.264C202.98 337.529 203.426 336.861 203.989 336.299C204.552 335.737 205.22 335.291 205.955 334.987C206.691 334.684 207.479 334.528 208.274 334.529H462.919C463.715 334.528 464.503 334.684 465.238 334.987C465.973 335.291 466.641 335.737 467.204 336.299C467.767 336.861 468.213 337.529 468.518 338.264C468.823 338.998 468.98 339.786 468.98 340.582C468.98 341.377 468.823 342.165 468.518 342.9C468.213 343.635 467.767 344.302 467.204 344.864C466.641 345.427 465.973 345.872 465.238 346.176C464.503 346.48 463.715 346.635 462.919 346.634Z" fill="#D5A021"/>
<path d="M377.476 373.958H293.716C292.111 373.958 290.571 373.32 289.436 372.185C288.301 371.05 287.663 369.51 287.663 367.905C287.663 366.3 288.301 364.76 289.436 363.625C290.571 362.49 292.111 361.852 293.716 361.852H377.476C379.082 361.852 380.621 362.49 381.756 363.625C382.892 364.76 383.529 366.3 383.529 367.905C383.529 369.51 382.892 371.05 381.756 372.185C380.621 373.32 379.082 373.958 377.476 373.958V373.958Z" fill="#D5A021"/>
<path d="M377.476 429.382H293.716C292.112 429.38 290.575 428.741 289.441 427.606C288.308 426.471 287.671 424.933 287.671 423.329C287.671 421.725 288.308 420.186 289.441 419.051C290.575 417.916 292.112 417.278 293.716 417.275H377.476C379.082 417.275 380.621 417.913 381.756 419.048C382.892 420.184 383.529 421.723 383.529 423.329C383.529 424.934 382.892 426.474 381.756 427.609C380.621 428.744 379.082 429.382 377.476 429.382V429.382Z" fill="#D5A021"/>
<path d="M377.476 457.769H293.716C292.921 457.77 292.133 457.614 291.398 457.31C290.662 457.007 289.994 456.561 289.431 455.999C288.869 455.437 288.422 454.769 288.117 454.034C287.813 453.299 287.656 452.512 287.656 451.716C287.656 450.921 287.813 450.133 288.117 449.398C288.422 448.663 288.869 447.996 289.431 447.433C289.994 446.871 290.662 446.426 291.398 446.122C292.133 445.818 292.921 445.662 293.716 445.663H377.476C378.272 445.662 379.06 445.818 379.795 446.122C380.53 446.426 381.198 446.871 381.761 447.433C382.324 447.996 382.771 448.663 383.075 449.398C383.38 450.133 383.537 450.921 383.537 451.716C383.537 452.512 383.38 453.299 383.075 454.034C382.771 454.769 382.324 455.437 381.761 455.999C381.198 456.561 380.53 457.007 379.795 457.31C379.06 457.614 378.272 457.77 377.476 457.769V457.769Z" fill="#D5A021"/>
<path d="M424.451 401.281H246.741C245.136 401.281 243.596 400.643 242.461 399.508C241.326 398.373 240.688 396.833 240.688 395.228C240.688 393.623 241.326 392.083 242.461 390.948C243.596 389.813 245.136 389.175 246.741 389.175H424.451C426.057 389.175 427.596 389.813 428.731 390.948C429.867 392.083 430.504 393.623 430.504 395.228C430.504 396.833 429.867 398.373 428.731 399.508C427.596 400.643 426.057 401.281 424.451 401.281Z" fill="#D5A021"/>
<path d="M689.014 129.022C703.42 121.147 708.715 103.083 700.84 88.6767C692.964 74.2701 674.901 68.9754 660.494 76.8508C646.088 84.7262 640.793 102.789 648.669 117.196C656.544 131.603 674.607 136.897 689.014 129.022Z" fill="#FFB8B8"/>
<path d="M671.783 140.819L683.055 126.33L699.133 125.633L700.738 139.26L708.705 142.933C716.66 173.156 717.889 204.755 712.304 235.503V235.503C711.237 236.509 710.456 237.781 710.044 239.188C709.632 240.595 709.603 242.087 709.96 243.51L710.476 245.569L710.428 245.644C708.733 248.319 708.158 251.554 708.827 254.649V254.649L723.392 280.529C692.462 293.135 669.788 269.627 648.783 238.819L635.783 193.819L671.783 140.819Z" fill="#D5A021"/>
<path d="M669.783 66.8187H688.987C701.577 66.8187 711.783 78.3007 711.783 92.4644C721.283 102.003 718.432 113.954 710.894 126.819C697.291 128.511 683.985 132.07 671.353 137.394L669.561 129.74L666.025 139.821C662.881 141.344 659.763 143.01 656.672 144.819C660.28 127.868 661.764 110.956 659.287 97.8187H652.783V90.7006L650.575 97.8187H638.783V97.8187C638.783 93.7477 639.585 89.7166 641.143 85.9555C642.701 82.1944 644.984 78.777 647.863 75.8984C650.741 73.0197 654.159 70.7363 657.92 69.1784C661.681 67.6205 665.712 66.8187 669.783 66.8187V66.8187Z" fill="#343536"/>
<path d="M637.897 224.129L634.861 193.769L675.162 134.111L676.819 135.23L636.923 194.29L639.887 223.93L637.897 224.129Z" fill="#343536"/>
<path d="M638.892 227.029C640.549 227.029 641.892 225.686 641.892 224.029C641.892 222.373 640.549 221.029 638.892 221.029C637.235 221.029 635.892 222.373 635.892 224.029C635.892 225.686 637.235 227.029 638.892 227.029Z" fill="#343536"/>
<path d="M695.392 78.5294C703.124 78.5294 709.392 72.2614 709.392 64.5294C709.392 56.7975 703.124 50.5294 695.392 50.5294C687.66 50.5294 681.392 56.7975 681.392 64.5294C681.392 72.2614 687.66 78.5294 695.392 78.5294Z" fill="#343536"/>
<path d="M665.062 296.923C665.663 296.926 666.262 296.982 666.852 297.092L676.677 234.898L666.834 175.024C666.215 171.257 667.047 167.396 669.163 164.219C671.278 161.042 674.52 158.785 678.234 157.904C681.948 157.023 685.858 157.583 689.175 159.472C692.492 161.36 694.97 164.436 696.108 168.08V168.08C699.798 179.886 701.624 192.196 701.52 204.565L701.177 245.398L674.986 308.109C674.757 310.022 673.98 311.828 672.748 313.31C671.517 314.791 669.884 315.886 668.045 316.461C666.206 317.037 664.24 317.068 662.384 316.553C660.528 316.037 658.86 314.996 657.581 313.555C656.302 312.114 655.468 310.334 655.177 308.429C654.886 306.524 655.152 304.576 655.942 302.819C656.733 301.062 658.014 299.571 659.632 298.525C661.25 297.479 663.136 296.923 665.062 296.923V296.923Z" fill="#FFB8B8"/>
<path d="M701.524 230.489L674.754 231.819L659.339 177.441C659.337 174.325 659.948 171.24 661.139 168.361C662.33 165.482 664.077 162.865 666.279 160.661C668.482 158.458 671.097 156.709 673.975 155.516C676.854 154.324 679.939 153.71 683.055 153.71C686.17 153.71 689.256 154.324 692.134 155.516C695.012 156.709 697.627 158.458 699.83 160.661C702.032 162.865 703.779 165.482 704.97 168.361C706.161 171.24 706.773 174.325 706.771 177.441L701.524 230.489Z" fill="#343536"/>
</g>
<defs>
<clipPath id="clip0">
<rect width="846.831" height="588.649" fill="white"/>
</clipPath>
</defs>
</svg>
